#tb 0: 1/1000000
#tb 1: 1/22050
0,          0,          0,        0,   414720, 0xa5cd50ca
1,          0,          0,     1462,     5848, 0xea04292b
1,       1462,       1462,     1472,     5888, 0x0e59e942
0,      66728,      66728,        0,   414720, 0x3facd321
1,       2934,       2934,     1472,     5888, 0x56d480f6
0,     133456,     133456,        0,   414720, 0x849e6d4b
1,       4406,       4406,     1472,     5888, 0xcb560b22
0,     200184,     200184,        0,   414720, 0xe649363f
1,       5878,       5878,     1472,     5888, 0xca26865b
0,     266912,     266912,        0,   414720, 0x5bbd7b14
1,       7350,       7350,     1472,     5888, 0xa434392f
0,     333640,     333640,        0,   414720, 0xe246ab51
1,       8822,       8822,     1472,     5888, 0xa0615fe4
0,     400368,     400368,        0,   414720, 0x5721b22e
1,      10294,      10294,     1472,     5888, 0x85b241cd
0,     467096,     467096,        0,   414720, 0xe391e107
1,      11766,      11766,     1472,     5888, 0x2c417a43
0,     533824,     533824,        0,   414720, 0x04d851ff
1,      13238,      13238,     1472,     5888, 0x2d5ed665
0,     600552,     600552,        0,   414720, 0x8d80d580
1,      14710,      14710,     1472,     5888, 0x37267a2d
0,     667280,     667280,        0,   414720, 0x5a24b0bc
1,      16182,      16182,     1472,     5888, 0x1f803c67
0,     734008,     734008,        0,   414720, 0x06cd6960
1,      17654,      17654,     1472,     5888, 0xfb7940ef
0,     800736,     800736,        0,   414720, 0xf5ca48b4
1,      19126,      19126,     1472,     5888, 0x1a5371e8
0,     867464,     867464,        0,   414720, 0x24700f94
1,      20598,      20598,     1472,     5888, 0x37e29b21
0,     934192,     934192,        0,   414720, 0xb0bfe451
1,      22070,      22070,     1462,     5848, 0x70065769
0,    1000920,    1000920,        0,   414720, 0x00e9f3d1
1,      23532,      23532,     1472,     5888, 0xaf624f3d
0,    1067648,    1067648,        0,   414720, 0x0efbffd1
1,      25004,      25004,     1472,     5888, 0x8f5e5b57
0,    1134376,    1134376,        0,   414720, 0x2ecdfc8d
1,      26476,      26476,     1472,     5888, 0x93545968
0,    1201104,    1201104,        0,   414720, 0x94b531fc
1,      27948,      27948,     1472,     5888, 0x915f268f
0,    1267832,    1267832,        0,   414720, 0x2c2579f8
1,      29420,      29420,     1472,     5888, 0x9cd48ac4
0,    1334560,    1334560,        0,   414720, 0x6c7ecfb8
1,      30892,      30892,     1472,     5888, 0x812c8e13
0,    1401288,    1401288,        0,   414720, 0x08982527
1,      32364,      32364,     1472,     5888, 0xe794a2a7
0,    1468016,    1468016,        0,   414720, 0x5c0161b3
1,      33836,      33836,     1472,     5888, 0x4a056e4b
0,    1534744,    1534744,        0,   414720, 0x453ce413
1,      35308,      35308,     1472,     5888, 0xa3589992
0,    1601472,    1601472,        0,   414720, 0x634e36b2
1,      36780,      36780,     1472,     5888, 0x19ea7ec5
0,    1668200,    1668200,        0,   414720, 0x401a683a
1,      38252,      38252,     1472,     5888, 0x422d5097
0,    1734928,    1734928,        0,   414720, 0x3c5f442e
1,      39724,      39724,     1472,     5888, 0xc9fd963f
0,    1801656,    1801656,        0,   414720, 0x075ef787
1,      41196,      41196,     1472,     5888, 0xc556a5ea
0,    1868384,    1868384,        0,   414720, 0x8501a04f
1,      42668,      42668,     1472,     5888, 0x51557e0f
0,    1935112,    1935112,        0,   414720, 0x3620093b
1,      44140,      44140,     1462,     5848, 0x4903ad21
0,    2001840,    2001840,        0,   414720, 0xa42d9480
1,      45602,      45602,     1472,     5888, 0xb1c85e85
0,    2068568,    2068568,        0,   414720, 0x09b150b4
1,      47074,      47074,     1472,     5888, 0x68963d65
0,    2135296,    2135296,        0,   414720, 0xcad407f0
1,      48546,      48546,     1472,     5888, 0x62a3124e
0,    2202024,    2202024,        0,   414720, 0x69e5eecd
1,      50018,      50018,     1472,     5888, 0x4ff1878f
0,    2268752,    2268752,        0,   414720, 0xb92ad2d9
1,      51490,      51490,     1472,     5888, 0x8b09ac18
0,    2335480,    2335480,        0,   414720, 0xc78eaf29
1,      52962,      52962,     1472,     5888, 0x67d85338
0,    2402208,    2402208,        0,   414720, 0x47c3fa91
1,      54434,      54434,     1472,     5888, 0x82eca0a6
0,    2468936,    2468936,        0,   414720, 0x8847b7b8
1,      55906,      55906,     1472,     5888, 0x81a17eb8
0,    2535664,    2535664,        0,   414720, 0x864cab2f
1,      57378,      57378,     1472,     5888, 0x7108478c
0,    2602392,    2602392,        0,   414720, 0x78d653e2
1,      58850,      58850,     1472,     5888, 0xbfc18b09
0,    2669120,    2669120,        0,   414720, 0xda15cbd2
1,      60322,      60322,     1472,     5888, 0xad93711f
0,    2735848,    2735848,        0,   414720, 0xdf9ce28a
1,      61794,      61794,     1472,     5888, 0xf8d25e39
0,    2802576,    2802576,        0,   414720, 0xe88c49ca
1,      63266,      63266,     1472,     5888, 0x41edd04e
0,    2869304,    2869304,        0,   414720, 0xd6bcbc07
1,      64738,      64738,     1472,     5888, 0xa6557ee2
0,    2936032,    2936032,        0,   414720, 0xf0b4a7bf
1,      66210,      66210,     1462,     5848, 0xc14d5456
0,    3002760,    3002760,        0,   414720, 0x74f9bfbf
1,      67672,      67672,     1472,     5888, 0x20a7821f
0,    3069488,    3069488,        0,   414720, 0x904ce103
1,      69144,      69144,     1472,     5888, 0x9f1a8f9d
0,    3136216,    3136216,        0,   414720, 0xca877e4a
1,      70616,      70616,     1472,     5888, 0x2f3c6cc8
0,    3202944,    3202944,        0,   414720, 0x588effd6
1,      72088,      72088,     1472,     5888, 0x757c894a
0,    3269672,    3269672,        0,   414720, 0x6dff8b71
1,      73560,      73560,     1472,     5888, 0x483e98bb
0,    3336400,    3336400,        0,   414720, 0xbeaae788
1,      75032,      75032,     1472,     5888, 0x84289c75
0,    3403128,    3403128,        0,   414720, 0x1a4d1242
1,      76504,      76504,     1472,     5888, 0xf79d5a91
0,    3469856,    3469856,        0,   414720, 0x4ae98ea0
1,      77976,      77976,     1472,     5888, 0x395b5228
0,    3536584,    3536584,        0,   414720, 0x41ed6d22
1,      79448,      79448,     1472,     5888, 0x9c937a14
0,    3603312,    3603312,        0,   414720, 0x486e70aa
1,      80920,      80920,     1472,     5888, 0x40c169cf
0,    3670040,    3670040,        0,   414720, 0xfddc103e
1,      82392,      82392,     1472,     5888, 0x3e7f99b0
0,    3736768,    3736768,        0,   414720, 0x8620f03e
1,      83864,      83864,     1472,     5888, 0xd4de993e
0,    3803496,    3803496,        0,   414720, 0x0e4ec273
1,      85336,      85336,     1472,     5888, 0xae856b09
0,    3870224,    3870224,        0,   414720, 0xb2298b3e
1,      86808,      86808,     1472,     5888, 0xa2369c95
0,    3936952,    3936952,        0,   414720, 0xb4f50176
1,      88280,      88280,     1462,     5848, 0x992d516b
0,    4003680,    4003680,        0,   414720, 0xb9c7a495
1,      89742,      89742,     1472,     5888, 0xcd785ba9
0,    4070408,    4070408,        0,   414720, 0xed270702
1,      91214,      91214,     1472,     5888, 0x55ea3bce
0,    4137136,    4137136,        0,   414720, 0x98b72586
1,      92686,      92686,     1472,     5888, 0xf06d4bbf
0,    4203864,    4203864,        0,   414720, 0xd8977cb1
1,      94158,      94158,     1472,     5888, 0x2a9d4c1a
0,    4270592,    4270592,        0,   414720, 0xff3d3851
1,      95630,      95630,     1472,     5888, 0xd5e348a3
0,    4337320,    4337320,        0,   414720, 0x7e4f0424
1,      97102,      97102,     1472,     5888, 0x6431a24c
0,    4404048,    4404048,        0,   414720, 0xa9e75006
1,      98574,      98574,     1472,     5888, 0x41f9908c
0,    4470776,    4470776,        0,   414720, 0x8f98cba9
1,     100046,     100046,     1472,     5888, 0x0ed99656
0,    4537504,    4537504,        0,   414720, 0x25ecd620
1,     101518,     101518,     1472,     5888, 0x635a6392
0,    4604232,    4604232,        0,   414720, 0x78cf5c58
1,     102990,     102990,     1472,     5888, 0x690c750c
0,    4670960,    4670960,        0,   414720, 0x3fb4b81a
1,     104462,     104462,     1472,     5888, 0xf9d97b23
0,    4737688,    4737688,        0,   414720, 0xd7b655fa
1,     105934,     105934,     1472,     5888, 0x75e1606b
0,    4804416,    4804416,        0,   414720, 0xd9158db3
1,     107406,     107406,     1472,     5888, 0x1bcb43b0
0,    4871144,    4871144,        0,   414720, 0x2e651852
1,     108878,     108878,     1472,     5888, 0x48c295cb
0,    4937872,    4937872,        0,   414720, 0x9f9adb64
1,     110350,     110350,     1462,     5848, 0xe47f7b5d
0,    5004600,    5004600,        0,   414720, 0xe9d16e81
1,     111812,     111812,     1472,     5888, 0x20be7f3e
0,    5071328,    5071328,        0,   414720, 0xbe73daf5
1,     113284,     113284,     1472,     5888, 0x8c2428c4
0,    5138056,    5138056,        0,   414720, 0x3d164329
1,     114756,     114756,     1472,     5888, 0x851379af
0,    5204784,    5204784,        0,   414720, 0x1d5a9bc8
1,     116228,     116228,     1472,     5888, 0x5916647d
0,    5271512,    5271512,        0,   414720, 0x8e8debbe
1,     117700,     117700,     1472,     5888, 0xef9c6281
0,    5338240,    5338240,        0,   414720, 0x4e7a2bf0
1,     119172,     119172,     1472,     5888, 0x49660d32
0,    5404968,    5404968,        0,   414720, 0x4a13804d
1,     120644,     120644,     1472,     5888, 0x62cf36a1
0,    5471696,    5471696,        0,   414720, 0x5dd188d8
1,     122116,     122116,     1472,     5888, 0x56dff39c
0,    5538424,    5538424,        0,   414720, 0xbe7f4963
1,     123588,     123588,     1472,     5888, 0x4e6b5b02
0,    5605152,    5605152,        0,   414720, 0xcff3b767
1,     125060,     125060,     1472,     5888, 0xb8697067
0,    5671880,    5671880,        0,   414720, 0xbbd3afa0
1,     126532,     126532,     1472,     5888, 0xcb4e2706
0,    5738608,    5738608,        0,   414720, 0xaf9dec62
1,     128004,     128004,     1472,     5888, 0x6eaa9669
0,    5805336,    5805336,        0,   414720, 0xc74816a1
1,     129476,     129476,     1472,     5888, 0xfd9d7dba
0,    5872064,    5872064,        0,   414720, 0x51488bfc
1,     130948,     130948,     1472,     5888, 0xfe137923
0,    5938792,    5938792,        0,   414720, 0x68c10a2c
1,     132420,     132420,     1462,     5848, 0x1931296f
0,    6005520,    6005520,        0,   414720, 0x10179c4e
1,     133882,     133882,     1472,     5888, 0xa09a7c03
0,    6072248,    6072248,        0,   414720, 0x18d559b7
1,     135354,     135354,     1472,     5888, 0xded9802d
0,    6138976,    6138976,        0,   414720, 0x8257aa55
1,     136826,     136826,     1472,     5888, 0x9f6723b7
0,    6205704,    6205704,        0,   414720, 0x9ea24501
1,     138298,     138298,     1472,     5888, 0x3ad02476
0,    6272432,    6272432,        0,   414720, 0x238605cc
1,     139770,     139770,     1472,     5888, 0xa1647e32
0,    6339160,    6339160,        0,   414720, 0xb552deaa
1,     141242,     141242,     1472,     5888, 0x728672da
0,    6405888,    6405888,        0,   414720, 0x07c3348d
1,     142714,     142714,     1472,     5888, 0x9c098090
0,    6472616,    6472616,        0,   414720, 0x82f4f9b0
1,     144186,     144186,     1472,     5888, 0x32a65ea3
0,    6539344,    6539344,        0,   414720, 0xf5d76bc5
1,     145658,     145658,     1472,     5888, 0xdde141d5
0,    6606072,    6606072,        0,   414720, 0x34b3a1e6
1,     147130,     147130,     1472,     5888, 0x816c5fb4
0,    6672800,    6672800,        0,   414720, 0xda25e11b
1,     148602,     148602,     1472,     5888, 0x75e17581
0,    6739528,    6739528,        0,   414720, 0x2b19936b
1,     150074,     150074,     1472,     5888, 0x59035469
0,    6806256,    6806256,        0,   414720, 0xe91f9f73
1,     151546,     151546,     1472,     5888, 0x20d340cd
0,    6872984,    6872984,        0,   414720, 0x48d09aab
1,     153018,     153018,     1472,     5888, 0xa89a8790
0,    6939712,    6939712,        0,   414720, 0xac42bf83
1,     154490,     154490,     1462,     5848, 0x12b74c34
0,    7006440,    7006440,        0,   414720, 0x2d8ca14e
1,     155952,     155952,     1472,     5888, 0xcd3b3bef
0,    7073168,    7073168,        0,   414720, 0xe65462fd
1,     157424,     157424,     1472,     5888, 0xe5c44bf3
0,    7139896,    7139896,        0,   414720, 0xe5bfc929
1,     158896,     158896,     1472,     5888, 0xb82c4fa4
0,    7206624,    7206624,        0,   414720, 0x66784c58
1,     160368,     160368,     1472,     5888, 0x05b2443a
0,    7273352,    7273352,        0,   414720, 0x70dbeca8
1,     161840,     161840,     1472,     5888, 0x78028172
1,     163312,     163312,     1472,     5888, 0xdfcac19a
1,     164784,     164784,     1472,     5888, 0x0761a0b9
1,     166256,     166256,     1472,     5888, 0x77d88607
1,     167728,     167728,     1472,     5888, 0xdd7f4d77
1,     169200,     169200,     1472,     5888, 0x366bf58a
1,     170672,     170672,     1472,     5888, 0x9a3d59b5
1,     172144,     172144,     1472,     5888, 0x16cb777f
1,     173616,     173616,     1472,     5888, 0x1d4afe64
1,     175088,     175088,     1472,     5888, 0xc0fe1e73
1,     176560,     176560,     1462,     5848, 0xcceb69c8
1,     178022,     178022,     1472,     5888, 0x89449643
1,     179494,     179494,     1472,     5888, 0x5fe595b7
1,     180966,     180966,     1472,     5888, 0x400a8c77
